<?xml version="1.0" encoding="iso-8859-1"?>
<!-- Uploaded to: SVG Repo, www.svgrepo.com, Generator: SVG Repo Mixer Tools -->
<!DOCTYPE svg PUBLIC "-//W3C//DTD SVG 1.1//EN" "http://www.w3.org/Graphics/SVG/1.1/DTD/svg11.dtd">
<svg fill="#FFFFFF" version="1.1" id="Capa_1" xmlns="http://www.w3.org/2000/svg" xmlns:xlink="http://www.w3.org/1999/xlink" 
	 width="800px" height="800px" viewBox="0 0 97.054 97.054"
	 xml:space="preserve">
<g>
	<g>
		<path d="M63.027,0h-29v29h29V0z M58.027,24h-19V5h19V24z"/>
		<rect x="46.026" y="33.952" width="5" height="28.845"/>
		<path d="M48.527,66.804c-8.34,0-15.125,6.785-15.125,15.125c0,8.341,6.785,15.125,15.125,15.125s15.125-6.784,15.125-15.125
			C63.652,73.589,56.867,66.804,48.527,66.804z M48.527,92.054c-5.583,0-10.125-4.542-10.125-10.125s4.542-10.125,10.125-10.125
			s10.125,4.542,10.125,10.125S54.11,92.054,48.527,92.054z"/>
	</g>
</g>
</svg>